<?xml version="1.0" standalone="no"?>
<!DOCTYPE svg PUBLIC "-//W3C//DTD SVG 20010904//EN"
 "http://www.w3.org/TR/2001/REC-SVG-20010904/DTD/svg10.dtd">
<svg version="1.0" xmlns="http://www.w3.org/2000/svg"
 width="634.000000pt" height="634.000000pt" viewBox="0 0 634.000000 634.000000"
 preserveAspectRatio="xMidYMid meet">
<metadata>
Created by potrace 1.11, written by Peter Selinger 2001-2013
</metadata>
<g transform="translate(0.000000,634.000000) scale(0.100000,-0.100000)"
fill="#000000" stroke="none">
<path d="M0 3170 l0 -3170 3170 0 3170 0 0 3170 0 3170 -3170 0 -3170 0 0
-3170z m5124 2818 c-6 -10 -4 -10 7 0 14 13 59 17 59 4 0 -4 21 -14 46 -21 32
-10 44 -18 40 -28 -3 -8 -1 -11 4 -8 11 7 55 -30 55 -46 0 -5 5 -13 11 -17 13
-8 74 -134 74 -152 0 -6 5 -8 12 -4 8 5 9 2 5 -10 -4 -9 -3 -24 2 -34 16 -29
48 -106 54 -127 3 -11 25 -72 50 -135 24 -63 47 -131 51 -150 8 -40 44 -165
56 -195 10 -25 25 -128 46 -325 9 -85 22 -178 29 -206 7 -27 10 -65 7 -82 -3
-21 0 -32 8 -32 9 0 11 -15 6 -57 -5 -41 -4 -54 3 -43 8 11 11 -1 11 -45 0
-64 22 -115 58 -134 39 -21 97 -23 146 -7 74 25 79 23 72 -26 -4 -24 -8 -56
-10 -73 -2 -16 -5 -37 -9 -45 -7 -18 -19 -87 -21 -117 0 -13 -5 -23 -9 -23 -5
0 -6 -4 -3 -8 10 -16 -58 -304 -78 -331 -6 -8 -11 -21 -12 -30 -3 -50 -4 -53
-20 -47 -11 4 -14 1 -10 -12 4 -12 -1 -26 -14 -37 -11 -10 -20 -23 -20 -29 0
-6 -26 -36 -57 -66 -32 -30 -58 -57 -58 -60 -1 -9 -39 -65 -49 -71 -5 -4 -6
-12 -2 -18 4 -6 0 -21 -8 -33 -8 -13 -19 -63 -26 -113 -12 -95 -39 -450 -40
-523 0 -24 -4 -41 -9 -38 -4 3 -8 -7 -8 -22 1 -26 -4 -61 -38 -272 -8 -52 -18
-123 -21 -158 -4 -34 -11 -65 -15 -68 -5 -3 -9 -27 -9 -55 0 -33 -4 -48 -12
-46 -7 1 -14 -9 -16 -23 -2 -14 -8 -29 -13 -35 -5 -5 -9 -18 -9 -30 0 -12 -5
-26 -12 -33 -16 -16 -48 -15 -49 1 0 9 -2 9 -6 0 -2 -7 -10 -13 -18 -13 -7 0
-18 -7 -25 -15 -7 -8 -23 -15 -36 -15 -13 0 -24 -4 -24 -10 0 -5 -7 -10 -15
-10 -9 0 -25 -9 -37 -20 -12 -11 -36 -20 -52 -20 -24 0 -27 -3 -16 -10 12 -8
10 -10 -10 -11 -14 -1 -28 -1 -32 -1 -3 1 -12 -5 -18 -13 -15 -18 -37 -20 -42
-4 -3 8 -9 7 -19 -4 -12 -11 -34 -15 -86 -14 -39 1 -69 -1 -67 -4 2 -4 -14 -9
-36 -11 -22 -2 -41 0 -42 4 -2 3 -55 9 -118 12 -63 3 -123 6 -133 6 -10 1 -23
10 -30 21 -13 21 -33 27 -21 7 4 -7 -1 -6 -12 3 -10 9 -36 19 -56 23 -21 4
-38 11 -38 17 0 5 -10 1 -22 -11 -19 -17 -24 -18 -37 -5 -12 10 -26 12 -55 5
-21 -5 -45 -6 -54 -3 -10 4 -13 2 -8 -5 4 -7 2 -12 -3 -12 -6 0 -11 5 -11 11
0 8 -5 8 -15 -1 -10 -9 -15 -9 -15 -1 0 6 -9 11 -20 11 -18 0 -48 10 -97 33
-12 5 -28 7 -36 4 -10 -4 -17 2 -20 15 -4 13 -11 19 -21 15 -8 -3 -17 1 -20 9
-3 8 -13 14 -21 14 -9 0 -14 4 -11 8 5 8 -99 67 -119 67 -5 0 -14 3 -20 7 -18
11 -142 3 -157 -10 -12 -9 -17 -10 -20 -2 -2 7 -27 13 -56 15 -29 2 -56 6 -61
10 -5 3 -11 -1 -14 -7 -3 -10 -12 -9 -38 3 -97 47 -194 79 -241 79 -22 0 -28
5 -29 23 0 21 -1 21 -9 2 -6 -17 -9 -17 -14 -5 -6 15 -31 22 -88 24 -14 1 -24
4 -21 9 2 4 -12 7 -31 7 -20 0 -36 5 -36 10 0 6 -5 10 -11 10 -18 0 -99 43
-99 52 0 4 -7 8 -15 8 -8 0 -15 5 -15 11 0 6 -6 9 -14 6 -10 -4 -16 2 -18 16
-2 14 -11 23 -25 25 -13 2 -23 10 -23 18 0 8 -6 14 -14 14 -8 0 -16 3 -18 8
-6 13 -66 42 -88 42 -31 0 -72 24 -120 70 -23 22 -45 40 -49 40 -5 0 -16 24
-24 53 -13 40 -15 65 -8 113 5 34 14 70 19 80 6 10 23 49 39 86 28 67 43 88
143 202 74 85 112 158 104 201 -5 27 -15 38 -56 59 -27 14 -65 26 -85 26 -23
0 -32 4 -27 12 4 7 3 8 -4 4 -16 -10 -191 24 -227 43 -5 3 -16 6 -23 7 -20 3
-147 67 -150 76 -2 4 -10 8 -17 8 -8 0 -17 9 -20 20 -3 11 -15 20 -25 20 -12
0 -17 5 -14 14 3 7 -9 25 -26 40 -20 16 -30 32 -26 41 7 19 -12 62 -41 95 -13
14 -23 28 -23 32 0 4 -12 14 -27 22 -16 8 -24 15 -19 16 12 0 -55 59 -76 66
-20 6 -24 44 -7 61 21 21 -88 163 -126 163 -9 0 -13 5 -10 10 3 6 -2 10 -12
11 -16 0 -16 1 2 9 14 6 15 9 5 9 -9 1 -23 9 -32 19 -8 9 -30 30 -47 45 -25
23 -29 32 -21 47 6 10 20 22 32 25 13 4 46 22 73 40 62 40 120 53 277 61 119
6 256 -4 363 -27 28 -6 70 -13 95 -16 35 -4 41 -7 25 -14 -18 -7 -18 -8 4 -8
26 -1 35 -4 164 -46 81 -26 155 -32 188 -15 33 18 50 69 60 172 10 108 -2 184
-42 267 -10 22 -19 46 -19 53 0 7 -9 29 -19 49 -11 19 -25 54 -32 78 -8 28
-15 38 -21 29 -6 -10 -8 -9 -8 4 0 9 -3 25 -6 35 -5 15 -4 15 5 3 6 -8 11 -11
11 -6 0 5 -6 17 -13 25 -10 12 -165 358 -218 489 -5 12 -15 34 -21 48 -9 18
-13 81 -13 193 0 133 4 179 19 234 14 49 23 66 33 63 8 -3 12 -2 9 3 -3 5 3
19 14 31 11 13 20 26 20 30 0 5 8 11 18 15 17 7 27 10 91 21 32 6 173 -18 216
-37 11 -5 29 -10 40 -12 34 -6 139 -39 150 -47 6 -4 37 -13 70 -20 33 -7 69
-16 80 -21 33 -14 109 -40 130 -44 27 -5 103 -33 129 -48 12 -6 27 -12 35 -13
8 -2 17 -7 20 -12 3 -5 17 -13 31 -17 14 -4 48 -18 77 -31 28 -13 57 -24 62
-24 6 0 11 -5 11 -11 0 -6 7 -9 15 -5 8 3 15 1 15 -4 0 -6 7 -10 16 -10 16 0
264 -119 274 -131 10 -12 68 -22 156 -26 113 -5 151 10 243 97 35 33 68 60 72
60 5 0 9 6 9 14 0 7 7 19 15 26 13 11 14 10 9 -6 -4 -10 9 2 27 28 19 27 39
46 46 43 7 -2 10 2 6 11 -3 8 -1 14 4 12 5 -2 22 12 37 30 15 17 32 30 37 27
5 -4 6 2 2 11 -4 11 -2 15 4 11 5 -3 22 9 38 28 15 19 31 32 36 29 5 -3 6 2 3
10 -3 9 -1 16 5 16 11 0 55 43 173 168 39 41 70 67 78 67 3 0 4 3 3 7 -2 4 3
5 10 2 7 -2 21 2 32 10 25 19 28 19 19 4z m383 -4120 c-3 -7 -5 -2 -5 12 0 14
2 19 5 13 2 -7 2 -19 0 -25z"/>
<path d="M5147 4156 c-87 -32 -180 -120 -236 -226 -18 -34 -30 -64 -27 -67 3
-3 49 19 103 50 118 66 159 80 238 81 59 0 152 -27 203 -60 21 -14 22 -13 22
11 0 37 -15 62 -83 132 -43 45 -72 66 -107 77 -58 19 -64 19 -113 2z"/>
<path d="M3555 4102 c-11 -4 -39 -20 -62 -35 -71 -48 -180 -226 -169 -273 8
-31 20 -30 65 5 20 16 68 42 106 58 62 25 82 28 180 28 88 0 132 -6 219 -28
70 -19 112 -25 118 -19 25 25 -134 185 -222 225 -90 40 -182 56 -235 39z"/>
<path d="M4510 3465 c0 -9 -20 -35 -44 -59 -34 -35 -54 -46 -89 -51 -51 -8
-75 2 -124 48 -40 37 -45 18 -10 -34 55 -83 210 -75 261 13 l18 30 27 -25 c42
-40 69 -50 117 -42 51 7 94 53 94 99 l0 27 -33 -35 c-64 -68 -107 -67 -169 3
-39 44 -48 49 -48 26z"/>
</g>
</svg>
